<?xml version="1.0" ?>
<!-- Uploaded to: SVG Repo, www.svgrepo.com, Generator: SVG Repo Mixer Tools -->
<svg width="800px" height="800px" viewBox="0 0 512 512" id="Layer_1" version="1.1" xml:space="preserve" xmlns="http://www.w3.org/2000/svg" xmlns:xlink="http://www.w3.org/1999/xlink">
<style type="text/css">
	.st0{fill:#3B4652;}
	.st1{fill:#2B79C2;}
</style>
<g>
<path class="st0" d="M467.1,246.4h-26.7l-60.6-92H256v92H22.5v73.3h60.4c12.1-10.4,27.3-16.1,43.5-16.1s31.4,5.7,43.5,16.1h172.4   c12.1-10.4,27.3-16.1,43.5-16.1c16.2,0,31.4,5.7,43.5,16.1h60.4v-50.9C489.5,256.4,479.5,246.4,467.1,246.4z M290.2,244.1v-55.4   h71.2l36.5,55.4H290.2z"/>
<path class="st0" d="M22.5,370.3h37.2c0-13.2,3.8-25.8,10.9-36.6H22.5V370.3z"/>
<path class="st0" d="M193,370.3H319c0-13.1,3.8-25.8,10.9-36.6H182.1C189.2,344.5,193,357.1,193,370.3z"/>
<path class="st0" d="M452.3,370.3h37.2v-36.6h-48.1C448.5,344.5,452.3,357.1,452.3,370.3z"/>
<path class="st0" d="M126.4,317.6c-14.9,0-28.4,6.2-37.9,16.1c-9.1,9.5-14.8,22.4-14.8,36.6c0,29.1,23.6,52.7,52.7,52.7   c29.1,0,52.7-23.6,52.7-52.7c0-14.2-5.6-27.1-14.8-36.6C154.7,323.7,141.3,317.6,126.4,317.6z M126.4,393   c-12.6,0-22.8-10.2-22.8-22.8c0-12.6,10.2-22.8,22.8-22.8c12.6,0,22.8,10.2,22.8,22.8C149.1,382.8,138.9,393,126.4,393z"/>
<path class="st0" d="M385.6,317.6c-14.9,0-28.3,6.2-37.9,16.1c-9.2,9.5-14.8,22.4-14.8,36.6c0,29.1,23.6,52.7,52.7,52.7   c29.1,0,52.7-23.6,52.7-52.7c0-14.2-5.6-27.1-14.8-36.6C414,323.7,400.5,317.6,385.6,317.6z M385.6,393   c-12.6,0-22.8-10.2-22.8-22.8c0-12.6,10.2-22.8,22.8-22.8c12.6,0,22.8,10.2,22.8,22.8C408.5,382.8,398.2,393,385.6,393z"/>
<path class="st1" d="M27.6,227.5c0.1,1.4,0.3,3.1,0.5,4.9H242v-95.2c-12.4-17.3-25.6-35.1-44.2-45.3c-3.3-1.8-6.9-3.3-10.6-2.7   c-4,0.7-7.1,3.8-10.5,6.2c-10.4,7.2-24.1,6.8-36.6,4.6c-12.4-2.1-25-5.7-37.4-3.9C90,98,78,105.5,65.3,104   c-2.4-0.3-4.8-0.9-7.2-0.6c-3,0.3-5.7,1.9-8.1,3.8c-9,7-14.5,18.4-14.4,29.9c0,7.1,2.1,14.2,0.6,21.2c-1.5,6.7-6.2,12.4-7.5,19.2   c-1.8,9.5,3.4,19.1,2.7,28.8C30.9,213.4,27,220.3,27.6,227.5z"/>
</g>
</svg>